<?xml version="1.0" encoding="UTF-8" standalone="no"?>
<!-- Created with Inkscape (http://www.inkscape.org/) -->

<svg
   version="1.1"
   id="svg1"
   width="96"
   height="96"
   viewBox="0 0 96 96"
   sodipodi:docname="lomiri-barcode-reader-app-splash.svg"
   inkscape:version="1.3.2 (091e20ef0f, 2023-11-25)"
   xml:space="preserve"
   xmlns:inkscape="http://www.inkscape.org/namespaces/inkscape"
   xmlns:sodipodi="http://sodipodi.sourceforge.net/DTD/sodipodi-0.dtd"
   xmlns="http://www.w3.org/2000/svg"
   xmlns:svg="http://www.w3.org/2000/svg"><defs
     id="defs1" /><sodipodi:namedview
     id="namedview1"
     pagecolor="#808080"
     bordercolor="#000000"
     borderopacity="0.25"
     inkscape:showpageshadow="2"
     inkscape:pageopacity="0.0"
     inkscape:pagecheckerboard="0"
     inkscape:deskcolor="#d1d1d1"
     inkscape:zoom="5.6568543"
     inkscape:cx="51.530407"
     inkscape:cy="40.481863"
     inkscape:window-width="1920"
     inkscape:window-height="1019"
     inkscape:window-x="0"
     inkscape:window-y="30"
     inkscape:window-maximized="1"
     inkscape:current-layer="g1" /><g
     inkscape:groupmode="layer"
     inkscape:label="Image"
     id="g1"
     transform="translate(-0.027769,-0.023227)"><path
       style="fill:#ffffff"
       d="M 10.88,72.48 V 60.16 H 23.2 35.52 V 72.48 84.8 H 23.2 10.88 Z m 21.12,0 v -8.8 h -8.64 -8.64 v 8.8 8.8 H 23.36 32 Z m -14.08,0 V 67.2 h 5.28 5.28 v 5.28 5.28 H 23.2 17.92 Z m 21.12,8.8 v -3.52 h 1.76 1.76 V 76.502857 C 42.56,74.897563 41.902437,74.24 40.297143,74.24 H 39.04 V 70.72 67.2 h 3.52 3.52 V 65.942857 C 46.08,64.337563 45.422437,63.68 43.817143,63.68 H 42.56 V 61.92 60.16 H 40.8 39.04 V 58.4 56.64 H 35.52 32 v -1.76 -1.76 h 1.257143 c 1.432232,0 2.262857,-0.646042 2.262857,-1.76 0,-1.435802 -0.741025,-1.76 -4.022857,-1.76 H 28.48 v 3.52 3.52 H 26.72 24.96 V 55.382857 C 24.96,53.950625 24.313958,53.12 23.2,53.12 c -1.113958,0 -1.76,0.830625 -1.76,2.262857 V 56.64 H 19.68 17.92 V 51.862857 C 17.92,46.428777 17.783522,46.08 15.657143,46.08 H 14.4 v 3.52 3.52 H 12.64 10.88 V 49.6 46.08 h 1.76 1.76 V 44.822857 C 14.4,43.217563 13.742437,42.56 12.137143,42.56 H 10.88 V 40.8 39.04 h 3.52 3.52 v 1.257143 c 0,1.605294 0.657563,2.262857 2.262857,2.262857 H 21.44 V 40.8 39.04 h 3.52 3.52 v 3.52 3.52 h 5.28 5.28 v 5.28 5.28 h 1.76 1.76 v -1.76 -1.76 h 3.52 3.52 V 51.36 49.6 H 46.08 42.56 V 44.822857 C 42.56,39.388777 42.423522,39.04 40.297143,39.04 H 39.04 V 35.52 32 h 1.76 1.76 v 1.257143 c 0,1.432232 0.646042,2.262857 1.76,2.262857 1.113958,0 1.76,-0.830625 1.76,-2.262857 V 32 h 1.76 1.76 V 30.24 28.48 H 47.84 46.08 V 27.222857 C 46.08,25.617563 45.422437,24.96 43.817143,24.96 H 42.56 V 20.182857 C 42.56,14.748777 42.423522,14.4 40.297143,14.4 H 39.04 v -1.76 -1.76 h 8.8 8.8 v 1.76 1.76 H 55.382857 C 53.777563,14.4 53.12,15.057563 53.12,16.662857 V 17.92 H 51.36 49.6 v 1.257143 C 49.6,20.782437 50.257563,21.44 51.862857,21.44 H 53.12 v 1.76 1.76 h 1.76 1.76 v 10.56 10.56 h 1.257143 C 59.867932,46.08 60.16,45.560768 60.16,42.057143 V 39.04 h 1.76 1.76 v 5.28 5.28 H 60.16 56.64 V 47.84 46.08 H 54.88 53.12 V 43.062857 C 53.12,39.781025 52.795802,39.04 51.36,39.04 c -1.573744,0 -1.76,0.611985 -1.76,5.782857 V 49.6 h 1.76 1.76 v 1.76 1.76 H 51.36 49.6 v 1.76 1.76 h 3.52 3.52 v 1.257143 c 0,1.900583 0.563537,2.262857 3.52,2.262857 2.956463,0 3.52,-0.362274 3.52,-2.262857 V 56.64 h -1.76 -1.76 v -1.76 -1.76 h 1.76 1.76 v 1.76 1.76 h 1.76 1.76 v 1.257143 C 67.2,59.502437 67.857563,60.16 69.462857,60.16 H 70.72 V 55.382857 C 70.72,49.948777 70.583522,49.6 68.457143,49.6 H 67.2 v -3.52 -3.52 h 1.76 1.76 v 1.257143 c 0,1.432232 0.646042,2.262857 1.76,2.262857 1.113958,0 1.76,-0.830625 1.76,-2.262857 V 42.56 h 3.52 3.52 V 40.8 39.04 h 1.76 1.76 v 1.76 1.76 h -1.76 -1.76 v 1.76 1.76 h 1.76 1.76 v 7.04 7.04 H 83.04 81.28 V 53.12 46.08 H 80.022857 C 77.896478,46.08 77.76,46.428777 77.76,51.862857 V 56.64 H 76.502857 C 74.897563,56.64 74.24,57.297563 74.24,58.902857 V 60.16 h -1.76 -1.76 v 1.257143 c 0,1.605294 0.657563,2.262857 2.262857,2.262857 1.249524,0 1.257143,0.0076 1.257143,1.257143 0,1.605294 0.657563,2.262857 2.262857,2.262857 H 77.76 v -1.76 -1.76 h 3.52 3.52 v 3.52 3.52 H 83.04 81.28 V 69.462857 C 81.28,67.857563 80.622437,67.2 79.017143,67.2 H 77.76 v 3.017143 c 0,3.953574 0.06928,4.022857 4.022857,4.022857 H 84.8 V 76 77.76 H 83.542857 C 81.572068,77.76 81.28,78.279232 81.28,81.782857 V 84.8 H 76 70.72 V 83.04 81.28 H 68.96 67.2 v -1.76 -1.76 h 1.76 1.76 v 1.76 1.76 h 1.257143 c 1.900583,0 2.262857,-0.563537 2.262857,-3.52 0,-3.38461 -0.154731,-3.52 -4.022857,-3.52 H 67.2 V 72.48 70.72 H 63.68 60.16 V 68.96 67.2 H 58.902857 C 56.932068,67.2 56.64,67.719232 56.64,71.222857 V 74.24 H 53.12 49.6 V 76 77.76 h -3.52 -3.52 v 1.257143 c 0,2.126379 0.348777,2.262857 5.782857,2.262857 H 53.12 v 1.76 1.76 H 46.08 39.04 Z M 49.6,71.222857 C 49.6,67.719232 49.307932,67.2 47.337143,67.2 H 46.08 v 3.017143 c 0,3.503625 0.292068,4.022857 2.262857,4.022857 H 49.6 Z M 70.217143,70.217143 C 70.493714,69.940571 70.72,69.374857 70.72,68.96 70.72,68.545143 70.493714,67.979429 70.217143,67.702857 69.940571,67.426286 69.374857,67.2 68.96,67.2 c -1.113958,0 -1.76,0.830625 -1.76,2.262857 0,0.617936 0,1.257143 0,1.257143 0,0 0.625545,0 1.257143,0 0.71619,0 1.473524,-0.216381 1.76,-0.502857 z m -7.04,-3.52 C 63.453714,66.420571 63.68,65.854857 63.68,65.44 63.68,65.025143 63.453714,64.459429 63.177143,64.182857 62.900571,63.906286 62.334857,63.68 61.92,63.68 c -1.113958,0 -1.76,0.830625 -1.76,2.262857 0,0.6448 0,1.257143 0,1.257143 0,0 0.65241,0 1.257143,0 0.71619,0 1.473524,-0.216381 1.76,-0.502857 z m -10.56,-3.52 C 52.893714,62.900571 53.12,62.334857 53.12,61.92 c 0,-1.113958 -0.830625,-1.76 -2.262857,-1.76 H 49.6 V 58.4 56.64 h -3.52 -3.52 v 1.76 1.76 h 3.52 3.52 v 1.257143 c 0,1.432232 0.646042,2.262857 1.76,2.262857 0.414857,0 0.980571,-0.226286 1.257143,-0.502857 z M 28.48,47.84 V 46.08 H 26.72 24.96 V 44.822857 C 24.96,43.217563 24.302437,42.56 22.697143,42.56 H 21.44 v 3.017143 C 21.44,49.530717 21.509283,49.6 25.462857,49.6 H 28.48 Z M 52.617143,35.017143 C 52.893714,34.740571 53.12,34.174857 53.12,33.76 53.12,32.646042 52.289375,32 50.857143,32 50.237908,32 49.6,32 49.6,32 c 0,0 0,0.626854 0,1.257143 0,1.432232 0.646042,2.262857 1.76,2.262857 0.414857,0 0.980571,-0.226286 1.257143,-0.502857 z m 0,-7.04 c 0.286476,-0.286476 0.502857,-1.04381 0.502857,-1.76 0,-0.567954 0,-1.257143 0,-1.257143 0,0 -0.575573,0 -1.257143,0 -1.605294,0 -2.262857,0.657563 -2.262857,2.262857 0,0.630173 0,1.257143 0,1.257143 0,0 0.637783,0 1.257143,0 0.71619,0 1.473524,-0.216381 1.76,-0.502857 z M 49.6,16.662857 C 49.6,15.230625 48.953958,14.4 47.84,14.4 c -0.414857,0 -0.980571,0.226286 -1.257143,0.502857 C 46.306286,15.179429 46.08,15.745143 46.08,16.16 c 0,1.113958 0.830625,1.76 2.262857,1.76 H 49.6 Z M 56.64,79.52 v -1.76 h 1.257143 C 59.502437,77.76 60.16,77.102437 60.16,75.497143 V 74.24 h 1.76 1.76 v 3.52 3.52 H 60.16 56.64 Z M 32,40.8 v -1.76 h 1.76 1.76 v 1.76 1.76 H 33.76 32 Z M 10.88,23.2 V 10.88 H 23.2 35.52 V 23.2 35.52 H 23.2 10.88 Z M 32,23.2 V 14.4 H 23.36 14.72 V 23.2 32 H 23.36 32 Z m -14.08,0 v -5.28 h 5.28 5.28 v 5.28 5.28 H 23.2 17.92 Z m 42.24,0 V 10.88 H 72.48 84.8 V 23.2 35.52 H 72.48 60.16 Z m 21.12,0 V 14.4 H 72.64 64 v 8.8 8.8 h 8.64 8.64 z m -14.08,0 v -5.28 h 5.28 5.28 v 5.28 5.28 H 72.48 67.2 Z"
       id="path1"
       sodipodi:nodetypes="cccccccccccccccccccccccccccccccsscccccsscccccccccccssscccccssscccsscccccccccsscccccsscccccccccccccccccccccsscccccssscccccccsscsscccccccsscccsscccccccsscccccccccccssscccccccccccssscccccccccccsscsscccccssscccccccccccccccccccccsscsscccsssscccccccccsscsscccsscccccccccccccssscccccccsscccccccssccccccsscsscsssssscssssssscssssscccccccccsssccccsscssccssscssssscsscssssssscsccssccccccccccccccccccccccccccccccccccccccccccccccccccccccccccccccccccccccc"
       inkscape:label="path1" /></g></svg>
